<svg fill="none" height="132" viewBox="0 0 98 132" width="98" xmlns="http://www.w3.org/2000/svg">
    <path
        d="M23.3107 55.7C23.977 46.7689 30.8566 39.5236 39.7509 38.3775C47.781 37.3427 55.9285 37.3472 63.9553 38.3951C72.6973 39.5364 79.4714 46.6001 80.2459 55.3822L83.0473 87.1466C83.2347 89.2712 83.0968 91.412 82.6384 93.495L86.6807 94.3846L82.6384 93.495C80.2914 104.16 71.0948 111.933 60.188 112.47L49.3093 113.006L42.118 112.573C32.3284 111.983 24.0086 105.208 21.4481 95.741C20.8647 93.5837 20.6515 91.3431 20.8178 89.1145L23.3107 55.7Z"
        stroke="#FAFAFA" stroke-width="8.27814" />
    <path d="M33.5 69.5H42" stroke="white" stroke-linecap="round" stroke-width="6" />
    <path d="M62 69.5H70.5" stroke="white" stroke-linecap="round" stroke-width="6" />
    <path
        d="M8.31691 64.9471C8.31691 63.3469 9.6141 62.0497 11.2143 62.0497H18.6646C20.2647 62.0497 21.5619 63.3469 21.5619 64.947V77.3643C21.5619 78.9644 20.2647 80.2616 18.6646 80.2616H11.2143C9.6141 80.2616 8.31691 78.9644 8.31691 77.3643V64.9471Z"
        stroke="#FAFAFA" stroke-width="5.7947" />
    <rect height="18.2119" rx="2.89735" stroke="#FAFAFA" stroke-width="5.7947" width="13.245"
        x="81.7025" y="62.0497" />
    <rect fill="#FAFAFA" height="19.8675" width="4.96689" x="49.3907" y="16.9339" />
    <circle cx="51.8742" cy="12.7947" fill="#FAFAFA" r="5.7947" />
    <path
        d="M11.1035 15H0.478516V13.0371L7.32422 3.22266H0.664062V0.722656H10.918V2.67578L4.08203 12.5H11.1035V15ZM12.8965 31H6.52148V29.8223L10.6289 23.9336H6.63281V22.4336H12.7852V23.6055L8.68359 29.5H12.8965V31ZM18.54 45H13.2275V44.0186L16.6504 39.1113H13.3203V37.8613H18.4473V38.8379L15.0293 43.75H18.54V45Z"
        fill="white" />
</svg>
