<svg fill="none" height="125" viewBox="0 0 93 125" width="93" xmlns="http://www.w3.org/2000/svg">
    <path
        d="M18.3107 48.7C18.977 39.7689 25.8566 32.5236 34.7509 31.3775C42.781 30.3427 50.9285 30.3472 58.9553 31.3951C67.6973 32.5364 74.4714 39.6001 75.2459 48.3822L78.0473 80.1466C78.2347 82.2712 78.0968 84.412 77.6384 86.495L81.6807 87.3846L77.6384 86.495C75.2914 97.1598 66.0948 104.933 55.188 105.47L44.3093 106.006L37.118 105.573C27.3284 104.983 19.0086 98.2081 16.4481 88.741C15.8647 86.5837 15.6515 84.3431 15.8178 82.1145L18.3107 48.7Z"
        stroke="#FAFAFA" stroke-width="8.27814" />
    <circle cx="30.3124" cy="60.3124" fill="#FAFAFA" r="7.31236" />
    <path
        d="M63.6247 60C63.6247 64.0385 60.3509 67.3124 56.3124 67.3124C52.2739 67.3124 49 64.0385 49 60C49 55.9615 52.2739 52.6876 56.3124 52.6876C60.3509 52.6876 63.6247 55.9615 63.6247 60Z"
        fill="#FAFAFA" />
    <path
        d="M3.31691 57.9471C3.31691 56.3469 4.6141 55.0497 6.21426 55.0497H13.6646C15.2647 55.0497 16.5619 56.3469 16.5619 57.947V70.3643C16.5619 71.9644 15.2647 73.2616 13.6646 73.2616H6.21426C4.6141 73.2616 3.31691 71.9644 3.31691 70.3643V57.9471Z"
        stroke="#FAFAFA" stroke-width="5.7947" />
    <rect height="18.2119" rx="2.89735" stroke="#FAFAFA" stroke-width="5.7947" width="13.245"
        x="76.7025" y="55.0497" />
    <rect fill="#FAFAFA" height="19.8675" width="4.96689" x="44.3907" y="9.9339" />
    <circle cx="46.8742" cy="5.7947" fill="#FAFAFA" r="5.7947" />
    <path
        d="M69.7867 17.0288L70.2347 15.9629C70.5092 15.3099 70.8426 14.772 71.2349 14.3494C71.6313 13.9171 72.126 13.5601 72.719 13.2782C73.3161 12.9868 74.0468 12.7403 74.9112 12.5386C75.6842 12.3664 76.319 12.1868 76.8155 12.0001C77.3217 11.8173 77.725 11.597 78.0255 11.3392C78.3396 11.0757 78.5855 10.7327 78.7631 10.3102C79.0254 9.686 78.9948 9.11379 78.6711 8.59355C78.3473 8.07331 77.7726 7.63964 76.9467 7.29252C76.1209 6.94541 75.2453 6.72996 74.3201 6.64616C73.4045 6.5664 72.4401 6.56221 71.4271 6.63359L71.1829 2.81911C72.3692 2.68497 73.5928 2.69076 74.8535 2.8365C76.1184 2.97263 77.4182 3.32121 78.753 3.88224C80.808 4.74599 82.1894 5.90853 82.8972 7.36986C83.6187 8.82563 83.6605 10.3121 83.0228 11.8294C82.6838 12.6361 82.2595 13.2826 81.75 13.769C81.2541 14.2498 80.6399 14.6357 79.9074 14.9267C79.1886 15.2122 78.328 15.4719 77.3257 15.706C76.5719 15.8864 75.9808 16.056 75.5525 16.2149C75.1241 16.3739 74.7917 16.5731 74.5554 16.8128C74.3327 17.0469 74.1366 17.3656 73.9671 17.7689L73.6039 18.6332L69.7867 17.0288ZM67.2552 21.7614C67.6346 20.8587 68.1459 20.3278 68.789 20.1687C69.4417 20.0137 70.1186 20.0835 70.8196 20.3782C71.5014 20.6647 72.0105 21.0934 72.3469 21.6642C72.6928 22.2389 72.6761 22.9777 72.2967 23.8804C71.9335 24.7446 71.4214 25.2639 70.7606 25.4381C70.1094 25.6164 69.4429 25.5622 68.7611 25.2757C68.0601 24.981 67.5407 24.5367 67.2028 23.9427C66.8745 23.3527 66.8919 22.6256 67.2552 21.7614Z"
        fill="white" />
</svg>
