<svg fill="none" height="31" viewBox="0 0 30 31" width="30" xmlns="http://www.w3.org/2000/svg">
    <path
        d="M6.5625 0.399994C6.81114 0.399994 7.0496 0.498766 7.22541 0.674581C7.40123 0.850397 7.5 1.08885 7.5 1.33749V2.27499H22.5V1.33749C22.5 1.08885 22.5988 0.850397 22.7746 0.674581C22.9504 0.498766 23.1889 0.399994 23.4375 0.399994C23.6861 0.399994 23.9246 0.498766 24.1004 0.674581C24.2762 0.850397 24.375 1.08885 24.375 1.33749V2.27499H26.25C27.2446 2.27499 28.1984 2.67008 28.9016 3.37334C29.6049 4.0766 30 5.03043 30 6.02499V26.65C30 27.6446 29.6049 28.5984 28.9016 29.3016C28.1984 30.0049 27.2446 30.4 26.25 30.4H3.75C2.75544 30.4 1.80161 30.0049 1.09835 29.3016C0.395088 28.5984 0 27.6446 0 26.65V9.77499H30V7.89999H0V6.02499C0 5.03043 0.395088 4.0766 1.09835 3.37334C1.80161 2.67008 2.75544 2.27499 3.75 2.27499H5.625V1.33749C5.625 1.08885 5.72377 0.850397 5.89959 0.674581C6.0754 0.498766 6.31386 0.399994 6.5625 0.399994V0.399994Z"
        fill="#7293E1" />
</svg>
