<svg fill="none" height="31" viewBox="0 0 30 31" width="30" xmlns="http://www.w3.org/2000/svg">
    <path clip-rule="evenodd"
        d="M15.199 4.21233L3.20002 17.2626V26.4131C3.20002 27.2784 3.51606 28.1082 4.07862 28.7201C4.64118 29.3319 5.40418 29.6756 6.19976 29.6756H24.1983C24.9938 29.6756 25.7568 29.3319 26.3194 28.7201C26.882 28.1082 27.198 27.2784 27.198 26.4131V17.2626L15.199 4.21233V4.21233ZM5.19985 2.48752V10.1002L9.19951 5.75009V2.48752C9.19951 2.19909 9.09416 1.92247 8.90664 1.71852C8.71912 1.51457 8.46479 1.39999 8.1996 1.39999H6.19976C5.93457 1.39999 5.68024 1.51457 5.49272 1.71852C5.3052 1.92247 5.19985 2.19909 5.19985 2.48752Z"
        fill="#7293E1" fill-rule="evenodd" />
    <path clip-rule="evenodd"
        d="M13.5861 1.23683C13.9611 0.829072 14.4697 0.600006 15 0.600006C15.5303 0.600006 16.0389 0.829072 16.4139 1.23683L29.7068 15.6922C29.8945 15.8964 30 16.1734 30 16.4622C30 16.751 29.8945 17.0279 29.7068 17.2321C29.519 17.4364 29.2644 17.5511 28.9988 17.5511C28.7333 17.5511 28.4786 17.4364 28.2909 17.2321L15 2.77459L1.70912 17.2321C1.52136 17.4364 1.26671 17.5511 1.00118 17.5511C0.73565 17.5511 0.480996 17.4364 0.293239 17.2321C0.105481 17.0279 0 16.751 0 16.4622C0 16.1734 0.105481 15.8964 0.293239 15.6922L13.5861 1.23683Z"
        fill="#7293E1" fill-rule="evenodd" />
</svg>
