<svg fill="none" height="30" viewBox="0 0 30 30" width="30" xmlns="http://www.w3.org/2000/svg">
    <path clip-rule="evenodd"
        d="M26.999 26.7374V12.5996H24.9992V26.7374C24.9992 27.0258 24.8938 27.3025 24.7063 27.5064C24.5188 27.7104 24.2645 27.8249 23.9993 27.8249H6.00079C5.7356 27.8249 5.48126 27.7104 5.29374 27.5064C5.10622 27.3025 5.00087 27.0258 5.00087 26.7374V12.5996H3.00104V26.7374C3.00104 27.6027 3.31709 28.4326 3.87965 29.0444C4.44221 29.6563 5.20521 30 6.00079 30H23.9993C24.7949 30 25.5579 29.6563 26.1204 29.0444C26.683 28.4326 26.999 27.6027 26.999 26.7374ZM5.00087 2.81186V10.4245L9.00054 6.07444V2.81186C9.00054 2.52343 8.89519 2.24681 8.70767 2.04286C8.52015 1.83891 8.26582 1.72433 8.00062 1.72433H6.00079C5.7356 1.72433 5.48126 1.83891 5.29374 2.04286C5.10622 2.24681 5.00087 2.52343 5.00087 2.81186Z"
        fill="#C8D1E6" fill-rule="evenodd" />
    <path clip-rule="evenodd"
        d="M16.4139 0.636825C16.0388 0.229066 15.5303 0 15 0C14.4697 0 13.9611 0.229066 13.5861 0.636825L0.29323 15.0922C0.105473 15.2964 -7.62939e-06 15.5734 -7.62939e-06 15.8622C-7.62939e-06 16.151 0.105473 16.4279 0.29323 16.6321C0.480988 16.8364 0.735641 16.9511 1.00117 16.9511C1.2667 16.9511 1.52135 16.8364 1.70911 16.6321L15 2.17459L28.2909 16.6321C28.4786 16.8364 28.7333 16.9511 28.9988 16.9511C29.2643 16.9511 29.519 16.8364 29.7068 16.6321C29.8945 16.4279 30 16.151 30 15.8622C30 15.5734 29.8945 15.2964 29.7068 15.0922L16.4139 0.636825Z"
        fill="#C8D1E6" fill-rule="evenodd" />
</svg>
