<svg fill="none" height="26" viewBox="0 0 26 26" width="26" xmlns="http://www.w3.org/2000/svg">
    <path
        d="M26 13C26 20.1797 20.1797 26 13 26C5.8203 26 0 20.1797 0 13C0 5.8203 5.8203 0 13 0C20.1797 0 26 5.8203 26 13ZM2.6 13C2.6 18.7438 7.25624 23.4 13 23.4C18.7438 23.4 23.4 18.7438 23.4 13C23.4 7.25624 18.7438 2.6 13 2.6C7.25624 2.6 2.6 7.25624 2.6 13Z"
        fill="#7293E1" />
    <path d="M13 11.2667V19.0667" stroke="#7293E1" stroke-linecap="round" stroke-width="2.6" />
    <path d="M13 7.80011L13.0182 7.79998" stroke="#7293E1" stroke-linecap="round"
        stroke-width="2.6" />
</svg>
