<svg fill="none" height="147" viewBox="0 0 109 147" width="109" xmlns="http://www.w3.org/2000/svg">
    <path
        d="M21.6347 56.8871C22.413 46.4545 30.4492 37.9912 40.8386 36.6524C50.2187 35.4436 59.7359 35.449 69.1121 36.673C79.3237 38.0061 87.2367 46.2573 88.1414 56.5158L91.4137 93.6202C91.6325 96.102 91.4715 98.6026 90.936 101.036C88.1945 113.493 77.4518 122.573 64.7115 123.201L52.0039 123.827L43.6037 123.321C32.1683 122.632 22.45 114.718 19.459 103.659C18.7774 101.139 18.5285 98.5221 18.7227 95.9189L21.6347 56.8871Z"
        stroke="#FAFAFA" stroke-width="9.66979" />
    <circle cx="39.6249" cy="72.9703" fill="#FAFAFA" r="8.54165" />
    <circle cx="70.5684" cy="72.9703" fill="#FAFAFA" r="8.54165" />
    <path
        d="M4.12027 67.6886C4.12027 65.8194 5.63553 64.3042 7.5047 64.3042H16.2075C18.0767 64.3042 19.5919 65.8194 19.5919 67.6886V82.1933C19.5919 84.0625 18.0767 85.5777 16.2075 85.5777H7.50469C5.63553 85.5777 4.12027 84.0625 4.12027 82.1933V67.6886Z"
        stroke="#FAFAFA" stroke-width="6.76886" />
    <rect height="21.2735" rx="3.38443" stroke="#FAFAFA" stroke-width="6.76886" width="15.4717"
        x="89.8428" y="64.3042" />
    <rect fill="#FAFAFA" height="23.2075" width="5.80188" x="52.099" y="11.6039" />
    <circle cx="55.0001" cy="6.76886" fill="#FAFAFA" r="6.76886" />
</svg>
