<svg fill="none" height="31" viewBox="0 0 30 31" width="30" xmlns="http://www.w3.org/2000/svg">
    <path
        d="M15 30.6C16.1366 30.6 17.2267 30.2049 18.0305 29.5017C18.8342 28.7985 19.2857 27.8447 19.2857 26.8502H10.7143C10.7143 27.8447 11.1658 28.7985 11.9695 29.5017C12.7733 30.2049 13.8634 30.6 15 30.6ZM17.1321 2.66216C17.1621 2.40146 17.1292 2.13817 17.0356 1.88928C16.9421 1.64038 16.79 1.4114 16.5891 1.2171C16.3882 1.0228 16.143 0.867497 15.8693 0.761209C15.5956 0.654921 15.2995 0.600006 15 0.600006C14.7005 0.600006 14.4044 0.654921 14.1307 0.761209C13.857 0.867497 13.6118 1.0228 13.4109 1.2171C13.21 1.4114 13.0579 1.64038 12.9644 1.88928C12.8708 2.13817 12.8379 2.40146 12.8679 2.66216C10.4458 3.0932 8.26847 4.24337 6.7045 5.91792C5.14052 7.59247 4.28603 9.68848 4.28571 11.851C4.28571 13.9097 3.21429 23.1004 0 24.9753H30C26.7857 23.1004 25.7143 13.9097 25.7143 11.851C25.7143 7.31378 22.0286 3.52649 17.1321 2.66216Z"
        fill="#7293E1" />
</svg>
