<svg fill="none" height="30" viewBox="0 0 30 30" width="30" xmlns="http://www.w3.org/2000/svg">
    <path
        d="M15 30C16.1366 30 17.2267 29.6049 18.0305 28.9017C18.8342 28.1985 19.2857 27.2447 19.2857 26.2502H10.7143C10.7143 27.2447 11.1658 28.1985 11.9695 28.9017C12.7733 29.6049 13.8634 30 15 30ZM15 3.59769L13.2921 3.89955C11.3549 4.24491 9.61356 5.1653 8.36283 6.50495C7.11209 7.8446 6.42878 9.52122 6.42857 11.251C6.42857 12.4285 6.14143 15.3702 5.445 18.2669C5.10214 19.7049 4.63929 21.203 4.02429 22.5004H25.9757C25.3607 21.203 24.9 19.7068 24.555 18.2669C23.8586 15.3702 23.5714 12.4285 23.5714 11.251C23.5707 9.52154 22.8872 7.84536 21.6365 6.5061C20.3858 5.16684 18.6447 4.24672 16.7079 3.90143L15 3.59582V3.59769ZM28.3286 22.5004C28.8064 23.3385 29.3593 24.0022 30 24.3753H0C0.640714 24.0022 1.19357 23.3385 1.67143 22.5004C3.6 19.1256 4.28571 12.9009 4.28571 11.251C4.28571 6.71377 7.97143 2.92648 12.8679 2.06215C12.8379 1.80146 12.8708 1.53817 12.9644 1.28927C13.0579 1.04037 13.21 0.811389 13.4109 0.617091C13.6118 0.422792 13.857 0.267491 14.1307 0.161203C14.4044 0.0549148 14.7005 0 15 0C15.2995 0 15.5956 0.0549148 15.8693 0.161203C16.143 0.267491 16.3882 0.422792 16.5891 0.617091C16.79 0.811389 16.9421 1.04037 17.0356 1.28927C17.1292 1.53817 17.1621 1.80146 17.1321 2.06215C19.5542 2.49319 21.7315 3.64337 23.2955 5.31791C24.8595 6.99246 25.714 9.08847 25.7143 11.251C25.7143 12.9009 26.4 19.1256 28.3286 22.5004Z"
        fill="#C8D1E6" />
</svg>
