<svg fill="none" height="31" viewBox="0 0 31 31" width="31" xmlns="http://www.w3.org/2000/svg">
    <path
        d="M31 15.1763C31 23.5579 24.0604 30.3526 15.5 30.3526C6.93959 30.3526 0 23.5579 0 15.1763C0 6.79466 6.93959 0 15.5 0C24.0604 0 31 6.79466 31 15.1763ZM2.325 15.1763C2.325 22.3007 8.22365 28.0762 15.5 28.0762C22.7764 28.0762 28.675 22.3007 28.675 15.1763C28.675 8.05191 22.7764 2.27644 15.5 2.27644C8.22365 2.27644 2.325 8.05191 2.325 15.1763Z"
        fill="#7293E1" />
    <path d="M16.1446 10.5453H13.1735V11.5357L15.1542 13.5164L17.1349 11.5357V10.5453H16.1446Z"
        fill="#7293E1" stroke="#7293E1" stroke-linecap="round" stroke-width="0.198073" />
    <path
        d="M15.1542 15.4971L11.1927 12.526V8.56458H19.1157V12.526L15.1542 15.4971ZM15.1542 15.4971L11.1927 19.4586V22.4297H19.1157V19.4586L15.1542 15.4971Z"
        stroke="#7293E1" stroke-linecap="round" stroke-width="1.98073" />
</svg>
